<?xml version="1.0" encoding="utf-8"?>
<svg xmlns="http://www.w3.org/2000/svg" xmlns:xlink="http://www.w3.org/1999/xlink" width="670" height="320" viewBox="0 0 2680 1280">
<defs>
  <clipPath id="clip960">
    <rect x="0" y="0" width="2680" height="1280"/>
  </clipPath>
</defs>
<path clip-path="url(#clip960)" d="M0 1280 L2680 1280 L2680 0 L0 0  Z" fill="#ffffff" fill-rule="evenodd" fill-opacity="1"/>
<defs>
  <clipPath id="clip961">
    <rect x="536" y="0" width="1877" height="1280"/>
  </clipPath>
</defs>
<path clip-path="url(#clip960)" d="M189.074 1179.45 L1292.76 1179.45 L1292.76 106.321 L189.074 106.321  Z" fill="#ffffff" fill-rule="evenodd" fill-opacity="1"/>
<defs>
  <clipPath id="clip962">
    <rect x="189" y="106" width="1105" height="1074"/>
  </clipPath>
</defs>
<polyline clip-path="url(#clip962)" style="stroke:#000000; stroke-linecap:round; stroke-linejoin:round; stroke-width:2; stroke-opacity:0.1; fill:none" points="273.973,1179.45 273.973,106.321 "/>
<polyline clip-path="url(#clip962)" style="stroke:#000000; stroke-linecap:round; stroke-linejoin:round; stroke-width:2; stroke-opacity:0.1; fill:none" points="443.77,1179.45 443.77,106.321 "/>
<polyline clip-path="url(#clip962)" style="stroke:#000000; stroke-linecap:round; stroke-linejoin:round; stroke-width:2; stroke-opacity:0.1; fill:none" points="613.567,1179.45 613.567,106.321 "/>
<polyline clip-path="url(#clip962)" style="stroke:#000000; stroke-linecap:round; stroke-linejoin:round; stroke-width:2; stroke-opacity:0.1; fill:none" points="783.364,1179.45 783.364,106.321 "/>
<polyline clip-path="url(#clip962)" style="stroke:#000000; stroke-linecap:round; stroke-linejoin:round; stroke-width:2; stroke-opacity:0.1; fill:none" points="953.161,1179.45 953.161,106.321 "/>
<polyline clip-path="url(#clip962)" style="stroke:#000000; stroke-linecap:round; stroke-linejoin:round; stroke-width:2; stroke-opacity:0.1; fill:none" points="1122.96,1179.45 1122.96,106.321 "/>
<polyline clip-path="url(#clip962)" style="stroke:#000000; stroke-linecap:round; stroke-linejoin:round; stroke-width:2; stroke-opacity:0.1; fill:none" points="1292.76,1179.45 1292.76,106.321 "/>
<polyline clip-path="url(#clip962)" style="stroke:#000000; stroke-linecap:round; stroke-linejoin:round; stroke-width:2; stroke-opacity:0.1; fill:none" points="189.074,1128.35 1292.76,1128.35 "/>
<polyline clip-path="url(#clip962)" style="stroke:#000000; stroke-linecap:round; stroke-linejoin:round; stroke-width:2; stroke-opacity:0.1; fill:none" points="189.074,872.841 1292.76,872.841 "/>
<polyline clip-path="url(#clip962)" style="stroke:#000000; stroke-linecap:round; stroke-linejoin:round; stroke-width:2; stroke-opacity:0.1; fill:none" points="189.074,617.334 1292.76,617.334 "/>
<polyline clip-path="url(#clip962)" style="stroke:#000000; stroke-linecap:round; stroke-linejoin:round; stroke-width:2; stroke-opacity:0.1; fill:none" points="189.074,361.828 1292.76,361.828 "/>
<polyline clip-path="url(#clip962)" style="stroke:#000000; stroke-linecap:round; stroke-linejoin:round; stroke-width:2; stroke-opacity:0.1; fill:none" points="189.074,106.321 1292.76,106.321 "/>
<polyline clip-path="url(#clip960)" style="stroke:#000000; stroke-linecap:round; stroke-linejoin:round; stroke-width:4; stroke-opacity:1; fill:none" points="189.074,1179.45 1292.76,1179.45 "/>
<polyline clip-path="url(#clip960)" style="stroke:#000000; stroke-linecap:round; stroke-linejoin:round; stroke-width:4; stroke-opacity:1; fill:none" points="273.973,1179.45 273.973,1160.55 "/>
<polyline clip-path="url(#clip960)" style="stroke:#000000; stroke-linecap:round; stroke-linejoin:round; stroke-width:4; stroke-opacity:1; fill:none" points="443.77,1179.45 443.77,1160.55 "/>
<polyline clip-path="url(#clip960)" style="stroke:#000000; stroke-linecap:round; stroke-linejoin:round; stroke-width:4; stroke-opacity:1; fill:none" points="613.567,1179.45 613.567,1160.55 "/>
<polyline clip-path="url(#clip960)" style="stroke:#000000; stroke-linecap:round; stroke-linejoin:round; stroke-width:4; stroke-opacity:1; fill:none" points="783.364,1179.45 783.364,1160.55 "/>
<polyline clip-path="url(#clip960)" style="stroke:#000000; stroke-linecap:round; stroke-linejoin:round; stroke-width:4; stroke-opacity:1; fill:none" points="953.161,1179.45 953.161,1160.55 "/>
<polyline clip-path="url(#clip960)" style="stroke:#000000; stroke-linecap:round; stroke-linejoin:round; stroke-width:4; stroke-opacity:1; fill:none" points="1122.96,1179.45 1122.96,1160.55 "/>
<polyline clip-path="url(#clip960)" style="stroke:#000000; stroke-linecap:round; stroke-linejoin:round; stroke-width:4; stroke-opacity:1; fill:none" points="1292.76,1179.45 1292.76,1160.55 "/>
<path clip-path="url(#clip960)" d="M273.973 1212.61 Q270.362 1212.61 268.533 1216.17 Q266.727 1219.71 266.727 1226.84 Q266.727 1233.95 268.533 1237.51 Q270.362 1241.06 273.973 1241.06 Q277.607 1241.06 279.412 1237.51 Q281.241 1233.95 281.241 1226.84 Q281.241 1219.71 279.412 1216.17 Q277.607 1212.61 273.973 1212.61 M273.973 1208.9 Q279.783 1208.9 282.838 1213.51 Q285.917 1218.09 285.917 1226.84 Q285.917 1235.57 282.838 1240.18 Q279.783 1244.76 273.973 1244.76 Q268.162 1244.76 265.084 1240.18 Q262.028 1235.57 262.028 1226.84 Q262.028 1218.09 265.084 1213.51 Q268.162 1208.9 273.973 1208.9 Z" fill="#000000" fill-rule="nonzero" fill-opacity="1" /><path clip-path="url(#clip960)" d="M434.152 1240.15 L441.791 1240.15 L441.791 1213.79 L433.481 1215.45 L433.481 1211.2 L441.744 1209.53 L446.42 1209.53 L446.42 1240.15 L454.059 1240.15 L454.059 1244.09 L434.152 1244.09 L434.152 1240.15 Z" fill="#000000" fill-rule="nonzero" fill-opacity="1" /><path clip-path="url(#clip960)" d="M608.22 1240.15 L624.539 1240.15 L624.539 1244.09 L602.595 1244.09 L602.595 1240.15 Q605.257 1237.4 609.84 1232.77 Q614.447 1228.12 615.627 1226.77 Q617.873 1224.25 618.752 1222.51 Q619.655 1220.76 619.655 1219.07 Q619.655 1216.31 617.711 1214.57 Q615.789 1212.84 612.687 1212.84 Q610.488 1212.84 608.035 1213.6 Q605.604 1214.37 602.826 1215.92 L602.826 1211.2 Q605.65 1210.06 608.104 1209.48 Q610.558 1208.9 612.595 1208.9 Q617.965 1208.9 621.16 1211.59 Q624.354 1214.27 624.354 1218.76 Q624.354 1220.89 623.544 1222.82 Q622.757 1224.71 620.65 1227.31 Q620.072 1227.98 616.97 1231.2 Q613.868 1234.39 608.22 1240.15 Z" fill="#000000" fill-rule="nonzero" fill-opacity="1" /><path clip-path="url(#clip960)" d="M787.612 1225.45 Q790.968 1226.17 792.843 1228.44 Q794.742 1230.71 794.742 1234.04 Q794.742 1239.16 791.223 1241.96 Q787.705 1244.76 781.223 1244.76 Q779.047 1244.76 776.732 1244.32 Q774.441 1243.9 771.987 1243.05 L771.987 1238.53 Q773.931 1239.67 776.246 1240.25 Q778.561 1240.82 781.084 1240.82 Q785.482 1240.82 787.774 1239.09 Q790.089 1237.35 790.089 1234.04 Q790.089 1230.99 787.936 1229.27 Q785.806 1227.54 781.987 1227.54 L777.959 1227.54 L777.959 1223.7 L782.172 1223.7 Q785.621 1223.7 787.45 1222.33 Q789.279 1220.94 789.279 1218.35 Q789.279 1215.69 787.38 1214.27 Q785.505 1212.84 781.987 1212.84 Q780.066 1212.84 777.867 1213.26 Q775.668 1213.67 773.029 1214.55 L773.029 1210.38 Q775.691 1209.64 778.005 1209.27 Q780.343 1208.9 782.404 1208.9 Q787.728 1208.9 790.829 1211.33 Q793.931 1213.74 793.931 1217.86 Q793.931 1220.73 792.288 1222.72 Q790.644 1224.69 787.612 1225.45 Z" fill="#000000" fill-rule="nonzero" fill-opacity="1" /><path clip-path="url(#clip960)" d="M956.171 1213.6 L944.365 1232.05 L956.171 1232.05 L956.171 1213.6 M954.944 1209.53 L960.823 1209.53 L960.823 1232.05 L965.754 1232.05 L965.754 1235.94 L960.823 1235.94 L960.823 1244.09 L956.171 1244.09 L956.171 1235.94 L940.569 1235.94 L940.569 1231.43 L954.944 1209.53 Z" fill="#000000" fill-rule="nonzero" fill-opacity="1" /><path clip-path="url(#clip960)" d="M1113.24 1209.53 L1131.59 1209.53 L1131.59 1213.46 L1117.52 1213.46 L1117.52 1221.94 Q1118.54 1221.59 1119.56 1221.43 Q1120.57 1221.24 1121.59 1221.24 Q1127.38 1221.24 1130.76 1224.41 Q1134.14 1227.58 1134.14 1233 Q1134.14 1238.58 1130.67 1241.68 Q1127.19 1244.76 1120.88 1244.76 Q1118.7 1244.76 1116.43 1244.39 Q1114.19 1244.02 1111.78 1243.28 L1111.78 1238.58 Q1113.86 1239.71 1116.08 1240.27 Q1118.31 1240.82 1120.78 1240.82 Q1124.79 1240.82 1127.13 1238.72 Q1129.46 1236.61 1129.46 1233 Q1129.46 1229.39 1127.13 1227.28 Q1124.79 1225.18 1120.78 1225.18 Q1118.91 1225.18 1117.03 1225.59 Q1115.18 1226.01 1113.24 1226.89 L1113.24 1209.53 Z" fill="#000000" fill-rule="nonzero" fill-opacity="1" /><path clip-path="url(#clip960)" d="M1293.16 1224.95 Q1290.01 1224.95 1288.16 1227.1 Q1286.33 1229.25 1286.33 1233 Q1286.33 1236.73 1288.16 1238.9 Q1290.01 1241.06 1293.16 1241.06 Q1296.31 1241.06 1298.14 1238.9 Q1299.99 1236.73 1299.99 1233 Q1299.99 1229.25 1298.14 1227.1 Q1296.31 1224.95 1293.16 1224.95 M1302.44 1210.29 L1302.44 1214.55 Q1300.68 1213.72 1298.88 1213.28 Q1297.1 1212.84 1295.34 1212.84 Q1290.71 1212.84 1288.25 1215.96 Q1285.82 1219.09 1285.48 1225.41 Q1286.84 1223.39 1288.9 1222.33 Q1290.96 1221.24 1293.44 1221.24 Q1298.65 1221.24 1301.66 1224.41 Q1304.69 1227.56 1304.69 1233 Q1304.69 1238.32 1301.54 1241.54 Q1298.39 1244.76 1293.16 1244.76 Q1287.17 1244.76 1283.99 1240.18 Q1280.82 1235.57 1280.82 1226.84 Q1280.82 1218.65 1284.71 1213.79 Q1288.6 1208.9 1295.15 1208.9 Q1296.91 1208.9 1298.69 1209.25 Q1300.5 1209.6 1302.44 1210.29 Z" fill="#000000" fill-rule="nonzero" fill-opacity="1" /><polyline clip-path="url(#clip960)" style="stroke:#000000; stroke-linecap:round; stroke-linejoin:round; stroke-width:4; stroke-opacity:1; fill:none" points="189.074,1179.45 189.074,106.321 "/>
<polyline clip-path="url(#clip960)" style="stroke:#000000; stroke-linecap:round; stroke-linejoin:round; stroke-width:4; stroke-opacity:1; fill:none" points="189.074,1128.35 207.972,1128.35 "/>
<polyline clip-path="url(#clip960)" style="stroke:#000000; stroke-linecap:round; stroke-linejoin:round; stroke-width:4; stroke-opacity:1; fill:none" points="189.074,872.841 207.972,872.841 "/>
<polyline clip-path="url(#clip960)" style="stroke:#000000; stroke-linecap:round; stroke-linejoin:round; stroke-width:4; stroke-opacity:1; fill:none" points="189.074,617.334 207.972,617.334 "/>
<polyline clip-path="url(#clip960)" style="stroke:#000000; stroke-linecap:round; stroke-linejoin:round; stroke-width:4; stroke-opacity:1; fill:none" points="189.074,361.828 207.972,361.828 "/>
<polyline clip-path="url(#clip960)" style="stroke:#000000; stroke-linecap:round; stroke-linejoin:round; stroke-width:4; stroke-opacity:1; fill:none" points="189.074,106.321 207.972,106.321 "/>
<path clip-path="url(#clip960)" d="M61.5365 1114.15 Q57.9254 1114.15 56.0967 1117.71 Q54.2912 1121.25 54.2912 1128.38 Q54.2912 1135.49 56.0967 1139.05 Q57.9254 1142.59 61.5365 1142.59 Q65.1707 1142.59 66.9763 1139.05 Q68.805 1135.49 68.805 1128.38 Q68.805 1121.25 66.9763 1117.71 Q65.1707 1114.15 61.5365 1114.15 M61.5365 1110.44 Q67.3467 1110.44 70.4022 1115.05 Q73.4809 1119.63 73.4809 1128.38 Q73.4809 1137.11 70.4022 1141.72 Q67.3467 1146.3 61.5365 1146.3 Q55.7264 1146.3 52.6477 1141.72 Q49.5921 1137.11 49.5921 1128.38 Q49.5921 1119.63 52.6477 1115.05 Q55.7264 1110.44 61.5365 1110.44 Z" fill="#000000" fill-rule="nonzero" fill-opacity="1" /><path clip-path="url(#clip960)" d="M81.6984 1139.75 L86.5827 1139.75 L86.5827 1145.63 L81.6984 1145.63 L81.6984 1139.75 Z" fill="#000000" fill-rule="nonzero" fill-opacity="1" /><path clip-path="url(#clip960)" d="M106.768 1114.15 Q103.157 1114.15 101.328 1117.71 Q99.5224 1121.25 99.5224 1128.38 Q99.5224 1135.49 101.328 1139.05 Q103.157 1142.59 106.768 1142.59 Q110.402 1142.59 112.208 1139.05 Q114.036 1135.49 114.036 1128.38 Q114.036 1121.25 112.208 1117.71 Q110.402 1114.15 106.768 1114.15 M106.768 1110.44 Q112.578 1110.44 115.633 1115.05 Q118.712 1119.63 118.712 1128.38 Q118.712 1137.11 115.633 1141.72 Q112.578 1146.3 106.768 1146.3 Q100.958 1146.3 97.8789 1141.72 Q94.8234 1137.11 94.8234 1128.38 Q94.8234 1119.63 97.8789 1115.05 Q100.958 1110.44 106.768 1110.44 Z" fill="#000000" fill-rule="nonzero" fill-opacity="1" /><path clip-path="url(#clip960)" d="M136.93 1114.15 Q133.319 1114.15 131.49 1117.71 Q129.684 1121.25 129.684 1128.38 Q129.684 1135.49 131.49 1139.05 Q133.319 1142.59 136.93 1142.59 Q140.564 1142.59 142.369 1139.05 Q144.198 1135.49 144.198 1128.38 Q144.198 1121.25 142.369 1117.71 Q140.564 1114.15 136.93 1114.15 M136.93 1110.44 Q142.74 1110.44 145.795 1115.05 Q148.874 1119.63 148.874 1128.38 Q148.874 1137.11 145.795 1141.72 Q142.74 1146.3 136.93 1146.3 Q131.119 1146.3 128.041 1141.72 Q124.985 1137.11 124.985 1128.38 Q124.985 1119.63 128.041 1115.05 Q131.119 1110.44 136.93 1110.44 Z" fill="#000000" fill-rule="nonzero" fill-opacity="1" /><path clip-path="url(#clip960)" d="M62.5319 858.639 Q58.9208 858.639 57.0921 862.204 Q55.2865 865.746 55.2865 872.875 Q55.2865 879.982 57.0921 883.547 Q58.9208 887.088 62.5319 887.088 Q66.1661 887.088 67.9717 883.547 Q69.8004 879.982 69.8004 872.875 Q69.8004 865.746 67.9717 862.204 Q66.1661 858.639 62.5319 858.639 M62.5319 854.936 Q68.342 854.936 71.3976 859.542 Q74.4763 864.125 74.4763 872.875 Q74.4763 881.602 71.3976 886.209 Q68.342 890.792 62.5319 890.792 Q56.7217 890.792 53.643 886.209 Q50.5875 881.602 50.5875 872.875 Q50.5875 864.125 53.643 859.542 Q56.7217 854.936 62.5319 854.936 Z" fill="#000000" fill-rule="nonzero" fill-opacity="1" /><path clip-path="url(#clip960)" d="M82.6938 884.241 L87.578 884.241 L87.578 890.121 L82.6938 890.121 L82.6938 884.241 Z" fill="#000000" fill-rule="nonzero" fill-opacity="1" /><path clip-path="url(#clip960)" d="M101.791 886.185 L118.11 886.185 L118.11 890.121 L96.166 890.121 L96.166 886.185 Q98.828 883.431 103.411 878.801 Q108.018 874.149 109.198 872.806 Q111.444 870.283 112.323 868.547 Q113.226 866.787 113.226 865.098 Q113.226 862.343 111.282 860.607 Q109.36 858.871 106.258 858.871 Q104.059 858.871 101.606 859.635 Q99.1752 860.399 96.3974 861.95 L96.3974 857.227 Q99.2215 856.093 101.675 855.514 Q104.129 854.936 106.166 854.936 Q111.536 854.936 114.731 857.621 Q117.925 860.306 117.925 864.797 Q117.925 866.926 117.115 868.848 Q116.328 870.746 114.221 873.338 Q113.643 874.01 110.541 877.227 Q107.439 880.422 101.791 886.185 Z" fill="#000000" fill-rule="nonzero" fill-opacity="1" /><path clip-path="url(#clip960)" d="M127.971 855.561 L146.328 855.561 L146.328 859.496 L132.254 859.496 L132.254 867.968 Q133.272 867.621 134.291 867.459 Q135.309 867.274 136.328 867.274 Q142.115 867.274 145.494 870.445 Q148.874 873.616 148.874 879.033 Q148.874 884.611 145.402 887.713 Q141.93 890.792 135.61 890.792 Q133.434 890.792 131.166 890.422 Q128.92 890.051 126.513 889.31 L126.513 884.611 Q128.596 885.746 130.819 886.301 Q133.041 886.857 135.518 886.857 Q139.522 886.857 141.86 884.75 Q144.198 882.644 144.198 879.033 Q144.198 875.422 141.86 873.315 Q139.522 871.209 135.518 871.209 Q133.643 871.209 131.768 871.625 Q129.916 872.042 127.971 872.922 L127.971 855.561 Z" fill="#000000" fill-rule="nonzero" fill-opacity="1" /><path clip-path="url(#clip960)" d="M61.5365 603.133 Q57.9254 603.133 56.0967 606.698 Q54.2912 610.239 54.2912 617.369 Q54.2912 624.475 56.0967 628.04 Q57.9254 631.582 61.5365 631.582 Q65.1707 631.582 66.9763 628.04 Q68.805 624.475 68.805 617.369 Q68.805 610.239 66.9763 606.698 Q65.1707 603.133 61.5365 603.133 M61.5365 599.429 Q67.3467 599.429 70.4022 604.036 Q73.4809 608.619 73.4809 617.369 Q73.4809 626.096 70.4022 630.702 Q67.3467 635.285 61.5365 635.285 Q55.7264 635.285 52.6477 630.702 Q49.5921 626.096 49.5921 617.369 Q49.5921 608.619 52.6477 604.036 Q55.7264 599.429 61.5365 599.429 Z" fill="#000000" fill-rule="nonzero" fill-opacity="1" /><path clip-path="url(#clip960)" d="M81.6984 628.735 L86.5827 628.735 L86.5827 634.614 L81.6984 634.614 L81.6984 628.735 Z" fill="#000000" fill-rule="nonzero" fill-opacity="1" /><path clip-path="url(#clip960)" d="M96.8141 600.054 L115.17 600.054 L115.17 603.989 L101.096 603.989 L101.096 612.461 Q102.115 612.114 103.134 611.952 Q104.152 611.767 105.171 611.767 Q110.958 611.767 114.337 614.938 Q117.717 618.11 117.717 623.526 Q117.717 629.105 114.245 632.207 Q110.772 635.285 104.453 635.285 Q102.277 635.285 100.009 634.915 Q97.7632 634.545 95.3558 633.804 L95.3558 629.105 Q97.4391 630.239 99.6613 630.795 Q101.884 631.35 104.36 631.35 Q108.365 631.35 110.703 629.244 Q113.041 627.137 113.041 623.526 Q113.041 619.915 110.703 617.809 Q108.365 615.702 104.36 615.702 Q102.485 615.702 100.61 616.119 Q98.7585 616.536 96.8141 617.415 L96.8141 600.054 Z" fill="#000000" fill-rule="nonzero" fill-opacity="1" /><path clip-path="url(#clip960)" d="M136.93 603.133 Q133.319 603.133 131.49 606.698 Q129.684 610.239 129.684 617.369 Q129.684 624.475 131.49 628.04 Q133.319 631.582 136.93 631.582 Q140.564 631.582 142.369 628.04 Q144.198 624.475 144.198 617.369 Q144.198 610.239 142.369 606.698 Q140.564 603.133 136.93 603.133 M136.93 599.429 Q142.74 599.429 145.795 604.036 Q148.874 608.619 148.874 617.369 Q148.874 626.096 145.795 630.702 Q142.74 635.285 136.93 635.285 Q131.119 635.285 128.041 630.702 Q124.985 626.096 124.985 617.369 Q124.985 608.619 128.041 604.036 Q131.119 599.429 136.93 599.429 Z" fill="#000000" fill-rule="nonzero" fill-opacity="1" /><path clip-path="url(#clip960)" d="M62.5319 347.626 Q58.9208 347.626 57.0921 351.191 Q55.2865 354.733 55.2865 361.862 Q55.2865 368.969 57.0921 372.534 Q58.9208 376.075 62.5319 376.075 Q66.1661 376.075 67.9717 372.534 Q69.8004 368.969 69.8004 361.862 Q69.8004 354.733 67.9717 351.191 Q66.1661 347.626 62.5319 347.626 M62.5319 343.923 Q68.342 343.923 71.3976 348.529 Q74.4763 353.112 74.4763 361.862 Q74.4763 370.589 71.3976 375.196 Q68.342 379.779 62.5319 379.779 Q56.7217 379.779 53.643 375.196 Q50.5875 370.589 50.5875 361.862 Q50.5875 353.112 53.643 348.529 Q56.7217 343.923 62.5319 343.923 Z" fill="#000000" fill-rule="nonzero" fill-opacity="1" /><path clip-path="url(#clip960)" d="M82.6938 373.228 L87.578 373.228 L87.578 379.108 L82.6938 379.108 L82.6938 373.228 Z" fill="#000000" fill-rule="nonzero" fill-opacity="1" /><path clip-path="url(#clip960)" d="M96.5826 344.548 L118.805 344.548 L118.805 346.538 L106.258 379.108 L101.374 379.108 L113.18 348.483 L96.5826 348.483 L96.5826 344.548 Z" fill="#000000" fill-rule="nonzero" fill-opacity="1" /><path clip-path="url(#clip960)" d="M127.971 344.548 L146.328 344.548 L146.328 348.483 L132.254 348.483 L132.254 356.955 Q133.272 356.608 134.291 356.446 Q135.309 356.261 136.328 356.261 Q142.115 356.261 145.494 359.432 Q148.874 362.603 148.874 368.02 Q148.874 373.598 145.402 376.7 Q141.93 379.779 135.61 379.779 Q133.434 379.779 131.166 379.409 Q128.92 379.038 126.513 378.297 L126.513 373.598 Q128.596 374.733 130.819 375.288 Q133.041 375.844 135.518 375.844 Q139.522 375.844 141.86 373.737 Q144.198 371.631 144.198 368.02 Q144.198 364.409 141.86 362.302 Q139.522 360.196 135.518 360.196 Q133.643 360.196 131.768 360.612 Q129.916 361.029 127.971 361.909 L127.971 344.548 Z" fill="#000000" fill-rule="nonzero" fill-opacity="1" /><path clip-path="url(#clip960)" d="M52.3467 119.666 L59.9856 119.666 L59.9856 93.3003 L51.6754 94.967 L51.6754 90.7077 L59.9393 89.0411 L64.6152 89.0411 L64.6152 119.666 L72.254 119.666 L72.254 123.601 L52.3467 123.601 L52.3467 119.666 Z" fill="#000000" fill-rule="nonzero" fill-opacity="1" /><path clip-path="url(#clip960)" d="M81.6984 117.721 L86.5827 117.721 L86.5827 123.601 L81.6984 123.601 L81.6984 117.721 Z" fill="#000000" fill-rule="nonzero" fill-opacity="1" /><path clip-path="url(#clip960)" d="M106.768 92.1198 Q103.157 92.1198 101.328 95.6846 Q99.5224 99.2262 99.5224 106.356 Q99.5224 113.462 101.328 117.027 Q103.157 120.569 106.768 120.569 Q110.402 120.569 112.208 117.027 Q114.036 113.462 114.036 106.356 Q114.036 99.2262 112.208 95.6846 Q110.402 92.1198 106.768 92.1198 M106.768 88.4161 Q112.578 88.4161 115.633 93.0225 Q118.712 97.6059 118.712 106.356 Q118.712 115.083 115.633 119.689 Q112.578 124.272 106.768 124.272 Q100.958 124.272 97.8789 119.689 Q94.8234 115.083 94.8234 106.356 Q94.8234 97.6059 97.8789 93.0225 Q100.958 88.4161 106.768 88.4161 Z" fill="#000000" fill-rule="nonzero" fill-opacity="1" /><path clip-path="url(#clip960)" d="M136.93 92.1198 Q133.319 92.1198 131.49 95.6846 Q129.684 99.2262 129.684 106.356 Q129.684 113.462 131.49 117.027 Q133.319 120.569 136.93 120.569 Q140.564 120.569 142.369 117.027 Q144.198 113.462 144.198 106.356 Q144.198 99.2262 142.369 95.6846 Q140.564 92.1198 136.93 92.1198 M136.93 88.4161 Q142.74 88.4161 145.795 93.0225 Q148.874 97.6059 148.874 106.356 Q148.874 115.083 145.795 119.689 Q142.74 124.272 136.93 124.272 Q131.119 124.272 128.041 119.689 Q124.985 115.083 124.985 106.356 Q124.985 97.6059 128.041 93.0225 Q131.119 88.4161 136.93 88.4161 Z" fill="#000000" fill-rule="nonzero" fill-opacity="1" /><path clip-path="url(#clip960)" d="M495.835 43.6931 L495.835 65.8515 L508.96 65.8515 Q515.563 65.8515 518.723 63.1374 Q521.923 60.3828 521.923 54.752 Q521.923 49.0808 518.723 46.4072 Q515.563 43.6931 508.96 43.6931 L495.835 43.6931 M495.835 18.8205 L495.835 37.0496 L507.947 37.0496 Q513.943 37.0496 516.859 34.8216 Q519.817 32.5531 519.817 27.935 Q519.817 23.3575 516.859 21.089 Q513.943 18.8205 507.947 18.8205 L495.835 18.8205 M487.652 12.096 L508.555 12.096 Q517.913 12.096 522.976 15.9849 Q528.04 19.8737 528.04 27.0438 Q528.04 32.5936 525.447 35.8748 Q522.855 39.156 517.832 39.9662 Q523.868 41.2625 527.189 45.3944 Q530.551 49.4858 530.551 55.6432 Q530.551 63.745 525.042 68.1605 Q519.533 72.576 509.365 72.576 L487.652 72.576 L487.652 12.096 Z" fill="#000000" fill-rule="nonzero" fill-opacity="1" /><path clip-path="url(#clip960)" d="M564.863 49.7694 Q555.829 49.7694 552.345 51.8354 Q548.862 53.9013 548.862 58.8839 Q548.862 62.8538 551.454 65.2034 Q554.087 67.5124 558.584 67.5124 Q564.782 67.5124 568.508 63.1374 Q572.276 58.7219 572.276 51.4303 L572.276 49.7694 L564.863 49.7694 M579.729 46.6907 L579.729 72.576 L572.276 72.576 L572.276 65.6895 Q569.724 69.8214 565.916 71.8063 Q562.108 73.7508 556.599 73.7508 Q549.631 73.7508 545.499 69.8619 Q541.408 65.9325 541.408 59.3701 Q541.408 51.7138 546.512 47.825 Q551.657 43.9361 561.824 43.9361 L572.276 43.9361 L572.276 43.2069 Q572.276 38.0623 568.873 35.2672 Q565.511 32.4315 559.394 32.4315 Q555.505 32.4315 551.819 33.3632 Q548.132 34.295 544.73 36.1584 L544.73 29.2718 Q548.821 27.692 552.669 26.9223 Q556.518 26.1121 560.164 26.1121 Q570.007 26.1121 574.868 31.2163 Q579.729 36.3204 579.729 46.6907 Z" fill="#000000" fill-rule="nonzero" fill-opacity="1" /><path clip-path="url(#clip960)" d="M613.96 76.7889 Q610.8 84.8907 607.802 87.3618 Q604.805 89.8329 599.781 89.8329 L593.827 89.8329 L593.827 83.5945 L598.202 83.5945 Q601.28 83.5945 602.982 82.1361 Q604.683 80.6778 606.749 75.2496 L608.086 71.8468 L589.735 27.2059 L597.634 27.2059 L611.813 62.6918 L625.991 27.2059 L633.89 27.2059 L613.96 76.7889 Z" fill="#000000" fill-rule="nonzero" fill-opacity="1" /><path clip-path="url(#clip960)" d="M682.987 48.0275 L682.987 51.6733 L648.716 51.6733 Q649.202 59.3701 653.334 63.421 Q657.507 67.4314 664.92 67.4314 Q669.214 67.4314 673.224 66.3781 Q677.275 65.3249 681.245 63.2184 L681.245 70.267 Q677.235 71.9684 673.022 72.8596 Q668.809 73.7508 664.474 73.7508 Q653.618 73.7508 647.258 67.4314 Q640.939 61.1119 640.939 50.3365 Q640.939 39.1965 646.934 32.6746 Q652.97 26.1121 663.178 26.1121 Q672.333 26.1121 677.64 32.0264 Q682.987 37.9003 682.987 48.0275 M675.533 45.84 Q675.452 39.7232 672.09 36.0774 Q668.768 32.4315 663.259 32.4315 Q657.021 32.4315 653.253 35.9558 Q649.527 39.4801 648.959 45.8805 L675.533 45.84 Z" fill="#000000" fill-rule="nonzero" fill-opacity="1" /><path clip-path="url(#clip960)" d="M724.144 28.5427 L724.144 35.5912 Q720.985 33.9709 717.582 33.1607 Q714.179 32.3505 710.533 32.3505 Q704.983 32.3505 702.188 34.0519 Q699.434 35.7533 699.434 39.156 Q699.434 41.7486 701.419 43.2475 Q703.404 44.7058 709.399 46.0426 L711.951 46.6097 Q719.891 48.3111 723.213 51.4303 Q726.575 54.509 726.575 60.0587 Q726.575 66.3781 721.552 70.0644 Q716.569 73.7508 707.819 73.7508 Q704.173 73.7508 700.203 73.0216 Q696.274 72.3329 691.899 70.9151 L691.899 63.2184 Q696.031 65.3654 700.041 66.4591 Q704.052 67.5124 707.981 67.5124 Q713.247 67.5124 716.083 65.73 Q718.919 63.9071 718.919 60.6258 Q718.919 57.5877 716.853 55.9673 Q714.827 54.3469 707.9 52.8481 L705.308 52.2405 Q698.38 50.7821 695.302 47.7845 Q692.223 44.7463 692.223 39.4801 Q692.223 33.0797 696.76 29.5959 Q701.297 26.1121 709.642 26.1121 Q713.774 26.1121 717.42 26.7198 Q721.066 27.3274 724.144 28.5427 Z" fill="#000000" fill-rule="nonzero" fill-opacity="1" /><path clip-path="url(#clip960)" d="M746.951 43.6931 L746.951 65.8515 L760.076 65.8515 Q766.679 65.8515 769.838 63.1374 Q773.039 60.3828 773.039 54.752 Q773.039 49.0808 769.838 46.4072 Q766.679 43.6931 760.076 43.6931 L746.951 43.6931 M746.951 18.8205 L746.951 37.0496 L759.063 37.0496 Q765.058 37.0496 767.975 34.8216 Q770.932 32.5531 770.932 27.935 Q770.932 23.3575 767.975 21.089 Q765.058 18.8205 759.063 18.8205 L746.951 18.8205 M738.768 12.096 L759.671 12.096 Q769.028 12.096 774.092 15.9849 Q779.155 19.8737 779.155 27.0438 Q779.155 32.5936 776.563 35.8748 Q773.97 39.156 768.947 39.9662 Q774.983 41.2625 778.305 45.3944 Q781.667 49.4858 781.667 55.6432 Q781.667 63.745 776.158 68.1605 Q770.649 72.576 760.481 72.576 L738.768 72.576 L738.768 12.096 Z" fill="#000000" fill-rule="nonzero" fill-opacity="1" /><path clip-path="url(#clip960)" d="M795.359 9.54393 L802.813 9.54393 L802.813 72.576 L795.359 72.576 L795.359 9.54393 Z" fill="#000000" fill-rule="nonzero" fill-opacity="1" /><path clip-path="url(#clip960)" d="M835.99 32.4315 Q829.994 32.4315 826.511 37.1306 Q823.027 41.7891 823.027 49.9314 Q823.027 58.0738 826.47 62.7728 Q829.954 67.4314 835.99 67.4314 Q841.945 67.4314 845.428 62.7323 Q848.912 58.0333 848.912 49.9314 Q848.912 41.8701 845.428 37.1711 Q841.945 32.4315 835.99 32.4315 M835.99 26.1121 Q845.712 26.1121 851.262 32.4315 Q856.811 38.7509 856.811 49.9314 Q856.811 61.0714 851.262 67.4314 Q845.712 73.7508 835.99 73.7508 Q826.227 73.7508 820.677 67.4314 Q815.168 61.0714 815.168 49.9314 Q815.168 38.7509 820.677 32.4315 Q826.227 26.1121 835.99 26.1121 Z" fill="#000000" fill-rule="nonzero" fill-opacity="1" /><path clip-path="url(#clip960)" d="M901.817 28.9478 L901.817 35.9153 Q898.657 34.1734 895.457 33.3227 Q892.297 32.4315 889.057 32.4315 Q881.805 32.4315 877.795 37.0496 Q873.785 41.6271 873.785 49.9314 Q873.785 58.2358 877.795 62.8538 Q881.805 67.4314 889.057 67.4314 Q892.297 67.4314 895.457 66.5807 Q898.657 65.6895 901.817 63.9476 L901.817 70.8341 Q898.698 72.2924 895.335 73.0216 Q892.014 73.7508 888.246 73.7508 Q877.998 73.7508 871.962 67.3098 Q865.926 60.8689 865.926 49.9314 Q865.926 38.832 872.002 32.472 Q878.119 26.1121 888.732 26.1121 Q892.176 26.1121 895.457 26.8413 Q898.738 27.5299 901.817 28.9478 Z" fill="#000000" fill-rule="nonzero" fill-opacity="1" /><path clip-path="url(#clip960)" d="M914.496 9.54393 L921.99 9.54393 L921.99 46.7717 L944.23 27.2059 L953.749 27.2059 L929.687 48.4326 L954.762 72.576 L945.04 72.576 L921.99 50.4176 L921.99 72.576 L914.496 72.576 L914.496 9.54393 Z" fill="#000000" fill-rule="nonzero" fill-opacity="1" /><path clip-path="url(#clip960)" d="M991.747 28.5427 L991.747 35.5912 Q988.587 33.9709 985.184 33.1607 Q981.782 32.3505 978.136 32.3505 Q972.586 32.3505 969.791 34.0519 Q967.036 35.7533 967.036 39.156 Q967.036 41.7486 969.021 43.2475 Q971.006 44.7058 977.002 46.0426 L979.554 46.6097 Q987.493 48.3111 990.815 51.4303 Q994.177 54.509 994.177 60.0587 Q994.177 66.3781 989.154 70.0644 Q984.172 73.7508 975.422 73.7508 Q971.776 73.7508 967.806 73.0216 Q963.877 72.3329 959.502 70.9151 L959.502 63.2184 Q963.634 65.3654 967.644 66.4591 Q971.654 67.5124 975.584 67.5124 Q980.85 67.5124 983.686 65.73 Q986.521 63.9071 986.521 60.6258 Q986.521 57.5877 984.455 55.9673 Q982.43 54.3469 975.503 52.8481 L972.91 52.2405 Q965.983 50.7821 962.905 47.7845 Q959.826 44.7463 959.826 39.4801 Q959.826 33.0797 964.363 29.5959 Q968.9 26.1121 977.245 26.1121 Q981.377 26.1121 985.022 26.7198 Q988.668 27.3274 991.747 28.5427 Z" fill="#000000" fill-rule="nonzero" fill-opacity="1" /><path clip-path="url(#clip962)" d="M273.974 153.285 L273.974 1128.35 L287.422 1128.35 L287.422 153.285 L273.974 153.285 L273.974 153.285  Z" fill="#000000" fill-rule="evenodd" fill-opacity="0.4"/>
<polyline clip-path="url(#clip962)" style="stroke:#000000; stroke-linecap:round; stroke-linejoin:round; stroke-width:4; stroke-opacity:0.4; fill:none" points="273.974,153.285 273.974,1128.35 287.422,1128.35 287.422,153.285 273.974,153.285 "/>
<path clip-path="url(#clip962)" d="M287.422 223.58 L287.422 1128.35 L302.15 1128.35 L302.15 223.58 L287.422 223.58 L287.422 223.58  Z" fill="#000000" fill-rule="evenodd" fill-opacity="0.4"/>
<polyline clip-path="url(#clip962)" style="stroke:#000000; stroke-linecap:round; stroke-linejoin:round; stroke-width:4; stroke-opacity:0.4; fill:none" points="287.422,223.58 287.422,1128.35 302.15,1128.35 302.15,223.58 287.422,223.58 "/>
<path clip-path="url(#clip962)" d="M302.15 307.416 L302.15 1128.35 L321.362 1128.35 L321.362 307.416 L302.15 307.416 L302.15 307.416  Z" fill="#000000" fill-rule="evenodd" fill-opacity="0.4"/>
<polyline clip-path="url(#clip962)" style="stroke:#000000; stroke-linecap:round; stroke-linejoin:round; stroke-width:4; stroke-opacity:0.4; fill:none" points="302.15,307.416 302.15,1128.35 321.362,1128.35 321.362,307.416 302.15,307.416 "/>
<path clip-path="url(#clip962)" d="M321.362 400.871 L321.362 1128.35 L345.696 1128.35 L345.696 400.871 L321.362 400.871 L321.362 400.871  Z" fill="#000000" fill-rule="evenodd" fill-opacity="0.4"/>
<polyline clip-path="url(#clip962)" style="stroke:#000000; stroke-linecap:round; stroke-linejoin:round; stroke-width:4; stroke-opacity:0.4; fill:none" points="321.362,400.871 321.362,1128.35 345.696,1128.35 345.696,400.871 321.362,400.871 "/>
<path clip-path="url(#clip962)" d="M345.696 510.223 L345.696 1128.35 L372.591 1128.35 L372.591 510.223 L345.696 510.223 L345.696 510.223  Z" fill="#000000" fill-rule="evenodd" fill-opacity="0.4"/>
<polyline clip-path="url(#clip962)" style="stroke:#000000; stroke-linecap:round; stroke-linejoin:round; stroke-width:4; stroke-opacity:0.4; fill:none" points="345.696,510.223 345.696,1128.35 372.591,1128.35 372.591,510.223 345.696,510.223 "/>
<path clip-path="url(#clip962)" d="M372.591 602.685 L372.591 1128.35 L398.847 1128.35 L398.847 602.685 L372.591 602.685 L372.591 602.685  Z" fill="#000000" fill-rule="evenodd" fill-opacity="0.4"/>
<polyline clip-path="url(#clip962)" style="stroke:#000000; stroke-linecap:round; stroke-linejoin:round; stroke-width:4; stroke-opacity:0.4; fill:none" points="372.591,602.685 372.591,1128.35 398.847,1128.35 398.847,602.685 372.591,602.685 "/>
<path clip-path="url(#clip962)" d="M398.847 669.297 L398.847 1128.35 L423.181 1128.35 L423.181 669.297 L398.847 669.297 L398.847 669.297  Z" fill="#000000" fill-rule="evenodd" fill-opacity="0.4"/>
<polyline clip-path="url(#clip962)" style="stroke:#000000; stroke-linecap:round; stroke-linejoin:round; stroke-width:4; stroke-opacity:0.4; fill:none" points="398.847,669.297 398.847,1128.35 423.181,1128.35 423.181,669.297 398.847,669.297 "/>
<path clip-path="url(#clip962)" d="M423.181 729.393 L423.181 1128.35 L443.673 1128.35 L443.673 729.393 L423.181 729.393 L423.181 729.393  Z" fill="#000000" fill-rule="evenodd" fill-opacity="0.4"/>
<polyline clip-path="url(#clip962)" style="stroke:#000000; stroke-linecap:round; stroke-linejoin:round; stroke-width:4; stroke-opacity:0.4; fill:none" points="423.181,729.393 423.181,1128.35 443.673,1128.35 443.673,729.393 423.181,729.393 "/>
<path clip-path="url(#clip962)" d="M443.673 787.256 L443.673 1128.35 L482.095 1128.35 L482.095 787.256 L443.673 787.256 L443.673 787.256  Z" fill="#000000" fill-rule="evenodd" fill-opacity="0.4"/>
<polyline clip-path="url(#clip962)" style="stroke:#000000; stroke-linecap:round; stroke-linejoin:round; stroke-width:4; stroke-opacity:0.4; fill:none" points="443.673,787.256 443.673,1128.35 482.095,1128.35 482.095,787.256 443.673,787.256 "/>
<path clip-path="url(#clip962)" d="M482.095 842.699 L482.095 1128.35 L499.385 1128.35 L499.385 842.699 L482.095 842.699 L482.095 842.699  Z" fill="#000000" fill-rule="evenodd" fill-opacity="0.4"/>
<polyline clip-path="url(#clip962)" style="stroke:#000000; stroke-linecap:round; stroke-linejoin:round; stroke-width:4; stroke-opacity:0.4; fill:none" points="482.095,842.699 482.095,1128.35 499.385,1128.35 499.385,842.699 482.095,842.699 "/>
<path clip-path="url(#clip962)" d="M499.385 884.031 L499.385 1128.35 L528.202 1128.35 L528.202 884.031 L499.385 884.031 L499.385 884.031  Z" fill="#000000" fill-rule="evenodd" fill-opacity="0.4"/>
<polyline clip-path="url(#clip962)" style="stroke:#000000; stroke-linecap:round; stroke-linejoin:round; stroke-width:4; stroke-opacity:0.4; fill:none" points="499.385,884.031 499.385,1128.35 528.202,1128.35 528.202,884.031 499.385,884.031 "/>
<path clip-path="url(#clip962)" d="M528.202 910.32 L528.202 1128.35 L549.334 1128.35 L549.334 910.32 L528.202 910.32 L528.202 910.32  Z" fill="#000000" fill-rule="evenodd" fill-opacity="0.4"/>
<polyline clip-path="url(#clip962)" style="stroke:#000000; stroke-linecap:round; stroke-linejoin:round; stroke-width:4; stroke-opacity:0.4; fill:none" points="528.202,910.32 528.202,1128.35 549.334,1128.35 549.334,910.32 528.202,910.32 "/>
<path clip-path="url(#clip962)" d="M549.334 940.292 L549.334 1128.35 L573.668 1128.35 L573.668 940.292 L549.334 940.292 L549.334 940.292  Z" fill="#000000" fill-rule="evenodd" fill-opacity="0.4"/>
<polyline clip-path="url(#clip962)" style="stroke:#000000; stroke-linecap:round; stroke-linejoin:round; stroke-width:4; stroke-opacity:0.4; fill:none" points="549.334,940.292 549.334,1128.35 573.668,1128.35 573.668,940.292 549.334,940.292 "/>
<path clip-path="url(#clip962)" d="M573.668 974.907 L573.668 1128.35 L615.933 1128.35 L615.933 974.907 L573.668 974.907 L573.668 974.907  Z" fill="#000000" fill-rule="evenodd" fill-opacity="0.4"/>
<polyline clip-path="url(#clip962)" style="stroke:#000000; stroke-linecap:round; stroke-linejoin:round; stroke-width:4; stroke-opacity:0.4; fill:none" points="573.668,974.907 573.668,1128.35 615.933,1128.35 615.933,974.907 573.668,974.907 "/>
<path clip-path="url(#clip962)" d="M615.933 1001.04 L615.933 1128.35 L644.109 1128.35 L644.109 1001.04 L615.933 1001.04 L615.933 1001.04  Z" fill="#000000" fill-rule="evenodd" fill-opacity="0.4"/>
<polyline clip-path="url(#clip962)" style="stroke:#000000; stroke-linecap:round; stroke-linejoin:round; stroke-width:4; stroke-opacity:0.4; fill:none" points="615.933,1001.04 615.933,1128.35 644.109,1128.35 644.109,1001.04 615.933,1001.04 "/>
<path clip-path="url(#clip962)" d="M644.109 1030.08 L644.109 1128.35 L700.462 1128.35 L700.462 1030.08 L644.109 1030.08 L644.109 1030.08  Z" fill="#000000" fill-rule="evenodd" fill-opacity="0.4"/>
<polyline clip-path="url(#clip962)" style="stroke:#000000; stroke-linecap:round; stroke-linejoin:round; stroke-width:4; stroke-opacity:0.4; fill:none" points="644.109,1030.08 644.109,1128.35 700.462,1128.35 700.462,1030.08 644.109,1030.08 "/>
<path clip-path="url(#clip962)" d="M700.462 1049.56 L700.462 1128.35 L726.077 1128.35 L726.077 1049.56 L700.462 1049.56 L700.462 1049.56  Z" fill="#000000" fill-rule="evenodd" fill-opacity="0.4"/>
<polyline clip-path="url(#clip962)" style="stroke:#000000; stroke-linecap:round; stroke-linejoin:round; stroke-width:4; stroke-opacity:0.4; fill:none" points="700.462,1049.56 700.462,1128.35 726.077,1128.35 726.077,1049.56 700.462,1049.56 "/>
<path clip-path="url(#clip962)" d="M726.077 1067.65 L726.077 1128.35 L782.43 1128.35 L782.43 1067.65 L726.077 1067.65 L726.077 1067.65  Z" fill="#000000" fill-rule="evenodd" fill-opacity="0.4"/>
<polyline clip-path="url(#clip962)" style="stroke:#000000; stroke-linecap:round; stroke-linejoin:round; stroke-width:4; stroke-opacity:0.4; fill:none" points="726.077,1067.65 726.077,1128.35 782.43,1128.35 782.43,1067.65 726.077,1067.65 "/>
<path clip-path="url(#clip962)" d="M782.43 1082.83 L782.43 1128.35 L817.01 1128.35 L817.01 1082.83 L782.43 1082.83 L782.43 1082.83  Z" fill="#000000" fill-rule="evenodd" fill-opacity="0.4"/>
<polyline clip-path="url(#clip962)" style="stroke:#000000; stroke-linecap:round; stroke-linejoin:round; stroke-width:4; stroke-opacity:0.4; fill:none" points="782.43,1082.83 782.43,1128.35 817.01,1128.35 817.01,1082.83 782.43,1082.83 "/>
<path clip-path="url(#clip962)" d="M817.01 1093.52 L817.01 1128.35 L877.205 1128.35 L877.205 1093.52 L817.01 1093.52 L817.01 1093.52  Z" fill="#000000" fill-rule="evenodd" fill-opacity="0.4"/>
<polyline clip-path="url(#clip962)" style="stroke:#000000; stroke-linecap:round; stroke-linejoin:round; stroke-width:4; stroke-opacity:0.4; fill:none" points="817.01,1093.52 817.01,1128.35 877.205,1128.35 877.205,1093.52 817.01,1093.52 "/>
<path clip-path="url(#clip962)" d="M877.205 1103.9 L877.205 1128.35 L932.917 1128.35 L932.917 1103.9 L877.205 1103.9 L877.205 1103.9  Z" fill="#000000" fill-rule="evenodd" fill-opacity="0.4"/>
<polyline clip-path="url(#clip962)" style="stroke:#000000; stroke-linecap:round; stroke-linejoin:round; stroke-width:4; stroke-opacity:0.4; fill:none" points="877.205,1103.9 877.205,1128.35 932.917,1128.35 932.917,1103.9 877.205,1103.9 "/>
<path clip-path="url(#clip962)" d="M932.917 1111.37 L932.917 1128.35 L1003.36 1128.35 L1003.36 1111.37 L932.917 1111.37 L932.917 1111.37  Z" fill="#000000" fill-rule="evenodd" fill-opacity="0.4"/>
<polyline clip-path="url(#clip962)" style="stroke:#000000; stroke-linecap:round; stroke-linejoin:round; stroke-width:4; stroke-opacity:0.4; fill:none" points="932.917,1111.37 932.917,1128.35 1003.36,1128.35 1003.36,1111.37 932.917,1111.37 "/>
<path clip-path="url(#clip962)" d="M1003.36 1118.1 L1003.36 1128.35 L1094.29 1128.35 L1094.29 1118.1 L1003.36 1118.1 L1003.36 1118.1  Z" fill="#000000" fill-rule="evenodd" fill-opacity="0.4"/>
<polyline clip-path="url(#clip962)" style="stroke:#000000; stroke-linecap:round; stroke-linejoin:round; stroke-width:4; stroke-opacity:0.4; fill:none" points="1003.36,1118.1 1003.36,1128.35 1094.29,1128.35 1094.29,1118.1 1003.36,1118.1 "/>
<path clip-path="url(#clip962)" d="M1094.29 1121.87 L1094.29 1128.35 L1166.65 1128.35 L1166.65 1121.87 L1094.29 1121.87 L1094.29 1121.87  Z" fill="#000000" fill-rule="evenodd" fill-opacity="0.4"/>
<polyline clip-path="url(#clip962)" style="stroke:#000000; stroke-linecap:round; stroke-linejoin:round; stroke-width:4; stroke-opacity:0.4; fill:none" points="1094.29,1121.87 1094.29,1128.35 1166.65,1128.35 1166.65,1121.87 1094.29,1121.87 "/>
<path clip-path="url(#clip962)" d="M1166.65 1125.38 L1166.65 1128.35 L1376.7 1128.35 L1376.7 1125.38 L1166.65 1125.38 L1166.65 1125.38  Z" fill="#000000" fill-rule="evenodd" fill-opacity="0.4"/>
<polyline clip-path="url(#clip962)" style="stroke:#000000; stroke-linecap:round; stroke-linejoin:round; stroke-width:4; stroke-opacity:0.4; fill:none" points="1166.65,1125.38 1166.65,1128.35 1376.7,1128.35 1376.7,1125.38 1166.65,1125.38 "/>
<path clip-path="url(#clip962)" d="M1376.7 1127.35 L1376.7 1128.35 L1597.62 1128.35 L1597.62 1127.35 L1376.7 1127.35 L1376.7 1127.35  Z" fill="#000000" fill-rule="evenodd" fill-opacity="0.4"/>
<polyline clip-path="url(#clip962)" style="stroke:#000000; stroke-linecap:round; stroke-linejoin:round; stroke-width:4; stroke-opacity:0.4; fill:none" points="1376.7,1127.35 1376.7,1128.35 1597.62,1128.35 1597.62,1127.35 1376.7,1127.35 "/>
<path clip-path="url(#clip962)" d="M1597.62 1128.12 L1597.62 1128.35 L1792.94 1128.35 L1792.94 1128.12 L1597.62 1128.12 L1597.62 1128.12  Z" fill="#000000" fill-rule="evenodd" fill-opacity="0.4"/>
<polyline clip-path="url(#clip962)" style="stroke:#000000; stroke-linecap:round; stroke-linejoin:round; stroke-width:4; stroke-opacity:0.4; fill:none" points="1597.62,1128.12 1597.62,1128.35 1792.94,1128.35 1792.94,1128.12 1597.62,1128.12 "/>
<path clip-path="url(#clip962)" d="M1792.94 1128.3 L1792.94 1128.35 L2206.62 1128.35 L2206.62 1128.3 L1792.94 1128.3 L1792.94 1128.3  Z" fill="#000000" fill-rule="evenodd" fill-opacity="0.4"/>
<polyline clip-path="url(#clip962)" style="stroke:#000000; stroke-linecap:round; stroke-linejoin:round; stroke-width:4; stroke-opacity:0.4; fill:none" points="1792.94,1128.3 1792.94,1128.35 2206.62,1128.35 2206.62,1128.3 1792.94,1128.3 "/>
<circle clip-path="url(#clip962)" style="fill:#000000; stroke:none; fill-opacity:0" cx="280.698" cy="153.285" r="2"/>
<circle clip-path="url(#clip962)" style="fill:#000000; stroke:none; fill-opacity:0" cx="294.786" cy="223.58" r="2"/>
<circle clip-path="url(#clip962)" style="fill:#000000; stroke:none; fill-opacity:0" cx="311.756" cy="307.416" r="2"/>
<circle clip-path="url(#clip962)" style="fill:#000000; stroke:none; fill-opacity:0" cx="333.529" cy="400.871" r="2"/>
<circle clip-path="url(#clip962)" style="fill:#000000; stroke:none; fill-opacity:0" cx="359.144" cy="510.223" r="2"/>
<circle clip-path="url(#clip962)" style="fill:#000000; stroke:none; fill-opacity:0" cx="385.719" cy="602.685" r="2"/>
<circle clip-path="url(#clip962)" style="fill:#000000; stroke:none; fill-opacity:0" cx="411.014" cy="669.297" r="2"/>
<circle clip-path="url(#clip962)" style="fill:#000000; stroke:none; fill-opacity:0" cx="433.427" cy="729.393" r="2"/>
<circle clip-path="url(#clip962)" style="fill:#000000; stroke:none; fill-opacity:0" cx="462.884" cy="787.256" r="2"/>
<circle clip-path="url(#clip962)" style="fill:#000000; stroke:none; fill-opacity:0" cx="490.74" cy="842.699" r="2"/>
<circle clip-path="url(#clip962)" style="fill:#000000; stroke:none; fill-opacity:0" cx="513.794" cy="884.031" r="2"/>
<circle clip-path="url(#clip962)" style="fill:#000000; stroke:none; fill-opacity:0" cx="538.768" cy="910.32" r="2"/>
<circle clip-path="url(#clip962)" style="fill:#000000; stroke:none; fill-opacity:0" cx="561.501" cy="940.292" r="2"/>
<circle clip-path="url(#clip962)" style="fill:#000000; stroke:none; fill-opacity:0" cx="594.801" cy="974.907" r="2"/>
<circle clip-path="url(#clip962)" style="fill:#000000; stroke:none; fill-opacity:0" cx="630.021" cy="1001.04" r="2"/>
<circle clip-path="url(#clip962)" style="fill:#000000; stroke:none; fill-opacity:0" cx="672.286" cy="1030.08" r="2"/>
<circle clip-path="url(#clip962)" style="fill:#000000; stroke:none; fill-opacity:0" cx="713.27" cy="1049.56" r="2"/>
<circle clip-path="url(#clip962)" style="fill:#000000; stroke:none; fill-opacity:0" cx="754.254" cy="1067.65" r="2"/>
<circle clip-path="url(#clip962)" style="fill:#000000; stroke:none; fill-opacity:0" cx="799.72" cy="1082.83" r="2"/>
<circle clip-path="url(#clip962)" style="fill:#000000; stroke:none; fill-opacity:0" cx="847.108" cy="1093.52" r="2"/>
<circle clip-path="url(#clip962)" style="fill:#000000; stroke:none; fill-opacity:0" cx="905.061" cy="1103.9" r="2"/>
<circle clip-path="url(#clip962)" style="fill:#000000; stroke:none; fill-opacity:0" cx="968.138" cy="1111.37" r="2"/>
<circle clip-path="url(#clip962)" style="fill:#000000; stroke:none; fill-opacity:0" cx="1048.82" cy="1118.1" r="2"/>
<circle clip-path="url(#clip962)" style="fill:#000000; stroke:none; fill-opacity:0" cx="1130.47" cy="1121.87" r="2"/>
<circle clip-path="url(#clip962)" style="fill:#000000; stroke:none; fill-opacity:0" cx="1271.67" cy="1125.38" r="2"/>
<path clip-path="url(#clip960)" d="M1529.07 1179.45 L2632.76 1179.45 L2632.76 106.321 L1529.07 106.321  Z" fill="#ffffff" fill-rule="evenodd" fill-opacity="1"/>
<defs>
  <clipPath id="clip963">
    <rect x="1529" y="106" width="1105" height="1074"/>
  </clipPath>
</defs>
<polyline clip-path="url(#clip963)" style="stroke:#000000; stroke-linecap:round; stroke-linejoin:round; stroke-width:2; stroke-opacity:0.1; fill:none" points="1613.97,1179.45 1613.97,106.321 "/>
<polyline clip-path="url(#clip963)" style="stroke:#000000; stroke-linecap:round; stroke-linejoin:round; stroke-width:2; stroke-opacity:0.1; fill:none" points="1783.77,1179.45 1783.77,106.321 "/>
<polyline clip-path="url(#clip963)" style="stroke:#000000; stroke-linecap:round; stroke-linejoin:round; stroke-width:2; stroke-opacity:0.1; fill:none" points="1953.57,1179.45 1953.57,106.321 "/>
<polyline clip-path="url(#clip963)" style="stroke:#000000; stroke-linecap:round; stroke-linejoin:round; stroke-width:2; stroke-opacity:0.1; fill:none" points="2123.36,1179.45 2123.36,106.321 "/>
<polyline clip-path="url(#clip963)" style="stroke:#000000; stroke-linecap:round; stroke-linejoin:round; stroke-width:2; stroke-opacity:0.1; fill:none" points="2293.16,1179.45 2293.16,106.321 "/>
<polyline clip-path="url(#clip963)" style="stroke:#000000; stroke-linecap:round; stroke-linejoin:round; stroke-width:2; stroke-opacity:0.1; fill:none" points="2462.96,1179.45 2462.96,106.321 "/>
<polyline clip-path="url(#clip963)" style="stroke:#000000; stroke-linecap:round; stroke-linejoin:round; stroke-width:2; stroke-opacity:0.1; fill:none" points="2632.76,1179.45 2632.76,106.321 "/>
<polyline clip-path="url(#clip963)" style="stroke:#000000; stroke-linecap:round; stroke-linejoin:round; stroke-width:2; stroke-opacity:0.1; fill:none" points="1529.07,1128.35 2632.76,1128.35 "/>
<polyline clip-path="url(#clip963)" style="stroke:#000000; stroke-linecap:round; stroke-linejoin:round; stroke-width:2; stroke-opacity:0.1; fill:none" points="1529.07,872.841 2632.76,872.841 "/>
<polyline clip-path="url(#clip963)" style="stroke:#000000; stroke-linecap:round; stroke-linejoin:round; stroke-width:2; stroke-opacity:0.1; fill:none" points="1529.07,617.334 2632.76,617.334 "/>
<polyline clip-path="url(#clip963)" style="stroke:#000000; stroke-linecap:round; stroke-linejoin:round; stroke-width:2; stroke-opacity:0.1; fill:none" points="1529.07,361.828 2632.76,361.828 "/>
<polyline clip-path="url(#clip963)" style="stroke:#000000; stroke-linecap:round; stroke-linejoin:round; stroke-width:2; stroke-opacity:0.1; fill:none" points="1529.07,106.321 2632.76,106.321 "/>
<polyline clip-path="url(#clip960)" style="stroke:#000000; stroke-linecap:round; stroke-linejoin:round; stroke-width:4; stroke-opacity:1; fill:none" points="1529.07,1179.45 2632.76,1179.45 "/>
<polyline clip-path="url(#clip960)" style="stroke:#000000; stroke-linecap:round; stroke-linejoin:round; stroke-width:4; stroke-opacity:1; fill:none" points="1613.97,1179.45 1613.97,1160.55 "/>
<polyline clip-path="url(#clip960)" style="stroke:#000000; stroke-linecap:round; stroke-linejoin:round; stroke-width:4; stroke-opacity:1; fill:none" points="1783.77,1179.45 1783.77,1160.55 "/>
<polyline clip-path="url(#clip960)" style="stroke:#000000; stroke-linecap:round; stroke-linejoin:round; stroke-width:4; stroke-opacity:1; fill:none" points="1953.57,1179.45 1953.57,1160.55 "/>
<polyline clip-path="url(#clip960)" style="stroke:#000000; stroke-linecap:round; stroke-linejoin:round; stroke-width:4; stroke-opacity:1; fill:none" points="2123.36,1179.45 2123.36,1160.55 "/>
<polyline clip-path="url(#clip960)" style="stroke:#000000; stroke-linecap:round; stroke-linejoin:round; stroke-width:4; stroke-opacity:1; fill:none" points="2293.16,1179.45 2293.16,1160.55 "/>
<polyline clip-path="url(#clip960)" style="stroke:#000000; stroke-linecap:round; stroke-linejoin:round; stroke-width:4; stroke-opacity:1; fill:none" points="2462.96,1179.45 2462.96,1160.55 "/>
<polyline clip-path="url(#clip960)" style="stroke:#000000; stroke-linecap:round; stroke-linejoin:round; stroke-width:4; stroke-opacity:1; fill:none" points="2632.76,1179.45 2632.76,1160.55 "/>
<path clip-path="url(#clip960)" d="M1613.97 1212.61 Q1610.36 1212.61 1608.53 1216.17 Q1606.73 1219.71 1606.73 1226.84 Q1606.73 1233.95 1608.53 1237.51 Q1610.36 1241.06 1613.97 1241.06 Q1617.61 1241.06 1619.41 1237.51 Q1621.24 1233.95 1621.24 1226.84 Q1621.24 1219.71 1619.41 1216.17 Q1617.61 1212.61 1613.97 1212.61 M1613.97 1208.9 Q1619.78 1208.9 1622.84 1213.51 Q1625.92 1218.09 1625.92 1226.84 Q1625.92 1235.57 1622.84 1240.18 Q1619.78 1244.76 1613.97 1244.76 Q1608.16 1244.76 1605.08 1240.18 Q1602.03 1235.57 1602.03 1226.84 Q1602.03 1218.09 1605.08 1213.51 Q1608.16 1208.9 1613.97 1208.9 Z" fill="#000000" fill-rule="nonzero" fill-opacity="1" /><path clip-path="url(#clip960)" d="M1774.15 1240.15 L1781.79 1240.15 L1781.79 1213.79 L1773.48 1215.45 L1773.48 1211.2 L1781.74 1209.53 L1786.42 1209.53 L1786.42 1240.15 L1794.06 1240.15 L1794.06 1244.09 L1774.15 1244.09 L1774.15 1240.15 Z" fill="#000000" fill-rule="nonzero" fill-opacity="1" /><path clip-path="url(#clip960)" d="M1948.22 1240.15 L1964.54 1240.15 L1964.54 1244.09 L1942.59 1244.09 L1942.59 1240.15 Q1945.26 1237.4 1949.84 1232.77 Q1954.45 1228.12 1955.63 1226.77 Q1957.87 1224.25 1958.75 1222.51 Q1959.65 1220.76 1959.65 1219.07 Q1959.65 1216.31 1957.71 1214.57 Q1955.79 1212.84 1952.69 1212.84 Q1950.49 1212.84 1948.03 1213.6 Q1945.6 1214.37 1942.83 1215.92 L1942.83 1211.2 Q1945.65 1210.06 1948.1 1209.48 Q1950.56 1208.9 1952.59 1208.9 Q1957.97 1208.9 1961.16 1211.59 Q1964.35 1214.27 1964.35 1218.76 Q1964.35 1220.89 1963.54 1222.82 Q1962.76 1224.71 1960.65 1227.31 Q1960.07 1227.98 1956.97 1231.2 Q1953.87 1234.39 1948.22 1240.15 Z" fill="#000000" fill-rule="nonzero" fill-opacity="1" /><path clip-path="url(#clip960)" d="M2127.61 1225.45 Q2130.97 1226.17 2132.84 1228.44 Q2134.74 1230.71 2134.74 1234.04 Q2134.74 1239.16 2131.22 1241.96 Q2127.7 1244.76 2121.22 1244.76 Q2119.05 1244.76 2116.73 1244.32 Q2114.44 1243.9 2111.99 1243.05 L2111.99 1238.53 Q2113.93 1239.67 2116.25 1240.25 Q2118.56 1240.82 2121.08 1240.82 Q2125.48 1240.82 2127.77 1239.09 Q2130.09 1237.35 2130.09 1234.04 Q2130.09 1230.99 2127.94 1229.27 Q2125.81 1227.54 2121.99 1227.54 L2117.96 1227.54 L2117.96 1223.7 L2122.17 1223.7 Q2125.62 1223.7 2127.45 1222.33 Q2129.28 1220.94 2129.28 1218.35 Q2129.28 1215.69 2127.38 1214.27 Q2125.51 1212.84 2121.99 1212.84 Q2120.07 1212.84 2117.87 1213.26 Q2115.67 1213.67 2113.03 1214.55 L2113.03 1210.38 Q2115.69 1209.64 2118.01 1209.27 Q2120.34 1208.9 2122.4 1208.9 Q2127.73 1208.9 2130.83 1211.33 Q2133.93 1213.74 2133.93 1217.86 Q2133.93 1220.73 2132.29 1222.72 Q2130.64 1224.69 2127.61 1225.45 Z" fill="#000000" fill-rule="nonzero" fill-opacity="1" /><path clip-path="url(#clip960)" d="M2296.17 1213.6 L2284.37 1232.05 L2296.17 1232.05 L2296.17 1213.6 M2294.94 1209.53 L2300.82 1209.53 L2300.82 1232.05 L2305.75 1232.05 L2305.75 1235.94 L2300.82 1235.94 L2300.82 1244.09 L2296.17 1244.09 L2296.17 1235.94 L2280.57 1235.94 L2280.57 1231.43 L2294.94 1209.53 Z" fill="#000000" fill-rule="nonzero" fill-opacity="1" /><path clip-path="url(#clip960)" d="M2453.24 1209.53 L2471.59 1209.53 L2471.59 1213.46 L2457.52 1213.46 L2457.52 1221.94 Q2458.54 1221.59 2459.56 1221.43 Q2460.57 1221.24 2461.59 1221.24 Q2467.38 1221.24 2470.76 1224.41 Q2474.14 1227.58 2474.14 1233 Q2474.14 1238.58 2470.67 1241.68 Q2467.19 1244.76 2460.88 1244.76 Q2458.7 1244.76 2456.43 1244.39 Q2454.19 1244.02 2451.78 1243.28 L2451.78 1238.58 Q2453.86 1239.71 2456.08 1240.27 Q2458.31 1240.82 2460.78 1240.82 Q2464.79 1240.82 2467.13 1238.72 Q2469.46 1236.61 2469.46 1233 Q2469.46 1229.39 2467.13 1227.28 Q2464.79 1225.18 2460.78 1225.18 Q2458.91 1225.18 2457.03 1225.59 Q2455.18 1226.01 2453.24 1226.89 L2453.24 1209.53 Z" fill="#000000" fill-rule="nonzero" fill-opacity="1" /><path clip-path="url(#clip960)" d="M2633.16 1224.95 Q2630.01 1224.95 2628.16 1227.1 Q2626.33 1229.25 2626.33 1233 Q2626.33 1236.73 2628.16 1238.9 Q2630.01 1241.06 2633.16 1241.06 Q2636.31 1241.06 2638.14 1238.9 Q2639.99 1236.73 2639.99 1233 Q2639.99 1229.25 2638.14 1227.1 Q2636.31 1224.95 2633.16 1224.95 M2642.44 1210.29 L2642.44 1214.55 Q2640.68 1213.72 2638.88 1213.28 Q2637.1 1212.84 2635.34 1212.84 Q2630.71 1212.84 2628.25 1215.96 Q2625.82 1219.09 2625.48 1225.41 Q2626.84 1223.39 2628.9 1222.33 Q2630.96 1221.24 2633.44 1221.24 Q2638.65 1221.24 2641.66 1224.41 Q2644.69 1227.56 2644.69 1233 Q2644.69 1238.32 2641.54 1241.54 Q2638.39 1244.76 2633.16 1244.76 Q2627.17 1244.76 2623.99 1240.18 Q2620.82 1235.57 2620.82 1226.84 Q2620.82 1218.65 2624.71 1213.79 Q2628.6 1208.9 2635.15 1208.9 Q2636.91 1208.9 2638.69 1209.25 Q2640.5 1209.6 2642.44 1210.29 Z" fill="#000000" fill-rule="nonzero" fill-opacity="1" /><polyline clip-path="url(#clip960)" style="stroke:#000000; stroke-linecap:round; stroke-linejoin:round; stroke-width:4; stroke-opacity:1; fill:none" points="1529.07,1179.45 1529.07,106.321 "/>
<polyline clip-path="url(#clip960)" style="stroke:#000000; stroke-linecap:round; stroke-linejoin:round; stroke-width:4; stroke-opacity:1; fill:none" points="1529.07,1128.35 1547.97,1128.35 "/>
<polyline clip-path="url(#clip960)" style="stroke:#000000; stroke-linecap:round; stroke-linejoin:round; stroke-width:4; stroke-opacity:1; fill:none" points="1529.07,872.841 1547.97,872.841 "/>
<polyline clip-path="url(#clip960)" style="stroke:#000000; stroke-linecap:round; stroke-linejoin:round; stroke-width:4; stroke-opacity:1; fill:none" points="1529.07,617.334 1547.97,617.334 "/>
<polyline clip-path="url(#clip960)" style="stroke:#000000; stroke-linecap:round; stroke-linejoin:round; stroke-width:4; stroke-opacity:1; fill:none" points="1529.07,361.828 1547.97,361.828 "/>
<polyline clip-path="url(#clip960)" style="stroke:#000000; stroke-linecap:round; stroke-linejoin:round; stroke-width:4; stroke-opacity:1; fill:none" points="1529.07,106.321 1547.97,106.321 "/>
<path clip-path="url(#clip960)" d="M1401.54 1114.15 Q1397.93 1114.15 1396.1 1117.71 Q1394.29 1121.25 1394.29 1128.38 Q1394.29 1135.49 1396.1 1139.05 Q1397.93 1142.59 1401.54 1142.59 Q1405.17 1142.59 1406.98 1139.05 Q1408.8 1135.49 1408.8 1128.38 Q1408.8 1121.25 1406.98 1117.71 Q1405.17 1114.15 1401.54 1114.15 M1401.54 1110.44 Q1407.35 1110.44 1410.4 1115.05 Q1413.48 1119.63 1413.48 1128.38 Q1413.48 1137.11 1410.4 1141.72 Q1407.35 1146.3 1401.54 1146.3 Q1395.73 1146.3 1392.65 1141.72 Q1389.59 1137.11 1389.59 1128.38 Q1389.59 1119.63 1392.65 1115.05 Q1395.73 1110.44 1401.54 1110.44 Z" fill="#000000" fill-rule="nonzero" fill-opacity="1" /><path clip-path="url(#clip960)" d="M1421.7 1139.75 L1426.58 1139.75 L1426.58 1145.63 L1421.7 1145.63 L1421.7 1139.75 Z" fill="#000000" fill-rule="nonzero" fill-opacity="1" /><path clip-path="url(#clip960)" d="M1446.77 1114.15 Q1443.16 1114.15 1441.33 1117.71 Q1439.52 1121.25 1439.52 1128.38 Q1439.52 1135.49 1441.33 1139.05 Q1443.16 1142.59 1446.77 1142.59 Q1450.4 1142.59 1452.21 1139.05 Q1454.04 1135.49 1454.04 1128.38 Q1454.04 1121.25 1452.21 1117.71 Q1450.4 1114.15 1446.77 1114.15 M1446.77 1110.44 Q1452.58 1110.44 1455.63 1115.05 Q1458.71 1119.63 1458.71 1128.38 Q1458.71 1137.11 1455.63 1141.72 Q1452.58 1146.3 1446.77 1146.3 Q1440.96 1146.3 1437.88 1141.72 Q1434.82 1137.11 1434.82 1128.38 Q1434.82 1119.63 1437.88 1115.05 Q1440.96 1110.44 1446.77 1110.44 Z" fill="#000000" fill-rule="nonzero" fill-opacity="1" /><path clip-path="url(#clip960)" d="M1476.93 1114.15 Q1473.32 1114.15 1471.49 1117.71 Q1469.68 1121.25 1469.68 1128.38 Q1469.68 1135.49 1471.49 1139.05 Q1473.32 1142.59 1476.93 1142.59 Q1480.56 1142.59 1482.37 1139.05 Q1484.2 1135.49 1484.2 1128.38 Q1484.2 1121.25 1482.37 1117.71 Q1480.56 1114.15 1476.93 1114.15 M1476.93 1110.44 Q1482.74 1110.44 1485.8 1115.05 Q1488.87 1119.63 1488.87 1128.38 Q1488.87 1137.11 1485.8 1141.72 Q1482.74 1146.3 1476.93 1146.3 Q1471.12 1146.3 1468.04 1141.72 Q1464.99 1137.11 1464.99 1128.38 Q1464.99 1119.63 1468.04 1115.05 Q1471.12 1110.44 1476.93 1110.44 Z" fill="#000000" fill-rule="nonzero" fill-opacity="1" /><path clip-path="url(#clip960)" d="M1402.53 858.639 Q1398.92 858.639 1397.09 862.204 Q1395.29 865.746 1395.29 872.875 Q1395.29 879.982 1397.09 883.547 Q1398.92 887.088 1402.53 887.088 Q1406.17 887.088 1407.97 883.547 Q1409.8 879.982 1409.8 872.875 Q1409.8 865.746 1407.97 862.204 Q1406.17 858.639 1402.53 858.639 M1402.53 854.936 Q1408.34 854.936 1411.4 859.542 Q1414.48 864.125 1414.48 872.875 Q1414.48 881.602 1411.4 886.209 Q1408.34 890.792 1402.53 890.792 Q1396.72 890.792 1393.64 886.209 Q1390.59 881.602 1390.59 872.875 Q1390.59 864.125 1393.64 859.542 Q1396.72 854.936 1402.53 854.936 Z" fill="#000000" fill-rule="nonzero" fill-opacity="1" /><path clip-path="url(#clip960)" d="M1422.69 884.241 L1427.58 884.241 L1427.58 890.121 L1422.69 890.121 L1422.69 884.241 Z" fill="#000000" fill-rule="nonzero" fill-opacity="1" /><path clip-path="url(#clip960)" d="M1441.79 886.185 L1458.11 886.185 L1458.11 890.121 L1436.17 890.121 L1436.17 886.185 Q1438.83 883.431 1443.41 878.801 Q1448.02 874.149 1449.2 872.806 Q1451.44 870.283 1452.32 868.547 Q1453.23 866.787 1453.23 865.098 Q1453.23 862.343 1451.28 860.607 Q1449.36 858.871 1446.26 858.871 Q1444.06 858.871 1441.61 859.635 Q1439.18 860.399 1436.4 861.95 L1436.4 857.227 Q1439.22 856.093 1441.68 855.514 Q1444.13 854.936 1446.17 854.936 Q1451.54 854.936 1454.73 857.621 Q1457.93 860.306 1457.93 864.797 Q1457.93 866.926 1457.11 868.848 Q1456.33 870.746 1454.22 873.338 Q1453.64 874.01 1450.54 877.227 Q1447.44 880.422 1441.79 886.185 Z" fill="#000000" fill-rule="nonzero" fill-opacity="1" /><path clip-path="url(#clip960)" d="M1467.97 855.561 L1486.33 855.561 L1486.33 859.496 L1472.25 859.496 L1472.25 867.968 Q1473.27 867.621 1474.29 867.459 Q1475.31 867.274 1476.33 867.274 Q1482.11 867.274 1485.49 870.445 Q1488.87 873.616 1488.87 879.033 Q1488.87 884.611 1485.4 887.713 Q1481.93 890.792 1475.61 890.792 Q1473.43 890.792 1471.17 890.422 Q1468.92 890.051 1466.51 889.31 L1466.51 884.611 Q1468.6 885.746 1470.82 886.301 Q1473.04 886.857 1475.52 886.857 Q1479.52 886.857 1481.86 884.75 Q1484.2 882.644 1484.2 879.033 Q1484.2 875.422 1481.86 873.315 Q1479.52 871.209 1475.52 871.209 Q1473.64 871.209 1471.77 871.625 Q1469.92 872.042 1467.97 872.922 L1467.97 855.561 Z" fill="#000000" fill-rule="nonzero" fill-opacity="1" /><path clip-path="url(#clip960)" d="M1401.54 603.133 Q1397.93 603.133 1396.1 606.698 Q1394.29 610.239 1394.29 617.369 Q1394.29 624.475 1396.1 628.04 Q1397.93 631.582 1401.54 631.582 Q1405.17 631.582 1406.98 628.04 Q1408.8 624.475 1408.8 617.369 Q1408.8 610.239 1406.98 606.698 Q1405.17 603.133 1401.54 603.133 M1401.54 599.429 Q1407.35 599.429 1410.4 604.036 Q1413.48 608.619 1413.48 617.369 Q1413.48 626.096 1410.4 630.702 Q1407.35 635.285 1401.54 635.285 Q1395.73 635.285 1392.65 630.702 Q1389.59 626.096 1389.59 617.369 Q1389.59 608.619 1392.65 604.036 Q1395.73 599.429 1401.54 599.429 Z" fill="#000000" fill-rule="nonzero" fill-opacity="1" /><path clip-path="url(#clip960)" d="M1421.7 628.735 L1426.58 628.735 L1426.58 634.614 L1421.7 634.614 L1421.7 628.735 Z" fill="#000000" fill-rule="nonzero" fill-opacity="1" /><path clip-path="url(#clip960)" d="M1436.81 600.054 L1455.17 600.054 L1455.17 603.989 L1441.1 603.989 L1441.1 612.461 Q1442.11 612.114 1443.13 611.952 Q1444.15 611.767 1445.17 611.767 Q1450.96 611.767 1454.34 614.938 Q1457.72 618.11 1457.72 623.526 Q1457.72 629.105 1454.24 632.207 Q1450.77 635.285 1444.45 635.285 Q1442.28 635.285 1440.01 634.915 Q1437.76 634.545 1435.36 633.804 L1435.36 629.105 Q1437.44 630.239 1439.66 630.795 Q1441.88 631.35 1444.36 631.35 Q1448.36 631.35 1450.7 629.244 Q1453.04 627.137 1453.04 623.526 Q1453.04 619.915 1450.7 617.809 Q1448.36 615.702 1444.36 615.702 Q1442.49 615.702 1440.61 616.119 Q1438.76 616.536 1436.81 617.415 L1436.81 600.054 Z" fill="#000000" fill-rule="nonzero" fill-opacity="1" /><path clip-path="url(#clip960)" d="M1476.93 603.133 Q1473.32 603.133 1471.49 606.698 Q1469.68 610.239 1469.68 617.369 Q1469.68 624.475 1471.49 628.04 Q1473.32 631.582 1476.93 631.582 Q1480.56 631.582 1482.37 628.04 Q1484.2 624.475 1484.2 617.369 Q1484.2 610.239 1482.37 606.698 Q1480.56 603.133 1476.93 603.133 M1476.93 599.429 Q1482.74 599.429 1485.8 604.036 Q1488.87 608.619 1488.87 617.369 Q1488.87 626.096 1485.8 630.702 Q1482.74 635.285 1476.93 635.285 Q1471.12 635.285 1468.04 630.702 Q1464.99 626.096 1464.99 617.369 Q1464.99 608.619 1468.04 604.036 Q1471.12 599.429 1476.93 599.429 Z" fill="#000000" fill-rule="nonzero" fill-opacity="1" /><path clip-path="url(#clip960)" d="M1402.53 347.626 Q1398.92 347.626 1397.09 351.191 Q1395.29 354.733 1395.29 361.862 Q1395.29 368.969 1397.09 372.534 Q1398.92 376.075 1402.53 376.075 Q1406.17 376.075 1407.97 372.534 Q1409.8 368.969 1409.8 361.862 Q1409.8 354.733 1407.97 351.191 Q1406.17 347.626 1402.53 347.626 M1402.53 343.923 Q1408.34 343.923 1411.4 348.529 Q1414.48 353.112 1414.48 361.862 Q1414.48 370.589 1411.4 375.196 Q1408.34 379.779 1402.53 379.779 Q1396.72 379.779 1393.64 375.196 Q1390.59 370.589 1390.59 361.862 Q1390.59 353.112 1393.64 348.529 Q1396.72 343.923 1402.53 343.923 Z" fill="#000000" fill-rule="nonzero" fill-opacity="1" /><path clip-path="url(#clip960)" d="M1422.69 373.228 L1427.58 373.228 L1427.58 379.108 L1422.69 379.108 L1422.69 373.228 Z" fill="#000000" fill-rule="nonzero" fill-opacity="1" /><path clip-path="url(#clip960)" d="M1436.58 344.548 L1458.8 344.548 L1458.8 346.538 L1446.26 379.108 L1441.37 379.108 L1453.18 348.483 L1436.58 348.483 L1436.58 344.548 Z" fill="#000000" fill-rule="nonzero" fill-opacity="1" /><path clip-path="url(#clip960)" d="M1467.97 344.548 L1486.33 344.548 L1486.33 348.483 L1472.25 348.483 L1472.25 356.955 Q1473.27 356.608 1474.29 356.446 Q1475.31 356.261 1476.33 356.261 Q1482.11 356.261 1485.49 359.432 Q1488.87 362.603 1488.87 368.02 Q1488.87 373.598 1485.4 376.7 Q1481.93 379.779 1475.61 379.779 Q1473.43 379.779 1471.17 379.409 Q1468.92 379.038 1466.51 378.297 L1466.51 373.598 Q1468.6 374.733 1470.82 375.288 Q1473.04 375.844 1475.52 375.844 Q1479.52 375.844 1481.86 373.737 Q1484.2 371.631 1484.2 368.02 Q1484.2 364.409 1481.86 362.302 Q1479.52 360.196 1475.52 360.196 Q1473.64 360.196 1471.77 360.612 Q1469.92 361.029 1467.97 361.909 L1467.97 344.548 Z" fill="#000000" fill-rule="nonzero" fill-opacity="1" /><path clip-path="url(#clip960)" d="M1392.35 119.666 L1399.99 119.666 L1399.99 93.3003 L1391.68 94.967 L1391.68 90.7077 L1399.94 89.0411 L1404.62 89.0411 L1404.62 119.666 L1412.25 119.666 L1412.25 123.601 L1392.35 123.601 L1392.35 119.666 Z" fill="#000000" fill-rule="nonzero" fill-opacity="1" /><path clip-path="url(#clip960)" d="M1421.7 117.721 L1426.58 117.721 L1426.58 123.601 L1421.7 123.601 L1421.7 117.721 Z" fill="#000000" fill-rule="nonzero" fill-opacity="1" /><path clip-path="url(#clip960)" d="M1446.77 92.1198 Q1443.16 92.1198 1441.33 95.6846 Q1439.52 99.2262 1439.52 106.356 Q1439.52 113.462 1441.33 117.027 Q1443.16 120.569 1446.77 120.569 Q1450.4 120.569 1452.21 117.027 Q1454.04 113.462 1454.04 106.356 Q1454.04 99.2262 1452.21 95.6846 Q1450.4 92.1198 1446.77 92.1198 M1446.77 88.4161 Q1452.58 88.4161 1455.63 93.0225 Q1458.71 97.6059 1458.71 106.356 Q1458.71 115.083 1455.63 119.689 Q1452.58 124.272 1446.77 124.272 Q1440.96 124.272 1437.88 119.689 Q1434.82 115.083 1434.82 106.356 Q1434.82 97.6059 1437.88 93.0225 Q1440.96 88.4161 1446.77 88.4161 Z" fill="#000000" fill-rule="nonzero" fill-opacity="1" /><path clip-path="url(#clip960)" d="M1476.93 92.1198 Q1473.32 92.1198 1471.49 95.6846 Q1469.68 99.2262 1469.68 106.356 Q1469.68 113.462 1471.49 117.027 Q1473.32 120.569 1476.93 120.569 Q1480.56 120.569 1482.37 117.027 Q1484.2 113.462 1484.2 106.356 Q1484.2 99.2262 1482.37 95.6846 Q1480.56 92.1198 1476.93 92.1198 M1476.93 88.4161 Q1482.74 88.4161 1485.8 93.0225 Q1488.87 97.6059 1488.87 106.356 Q1488.87 115.083 1485.8 119.689 Q1482.74 124.272 1476.93 124.272 Q1471.12 124.272 1468.04 119.689 Q1464.99 115.083 1464.99 106.356 Q1464.99 97.6059 1468.04 93.0225 Q1471.12 88.4161 1476.93 88.4161 Z" fill="#000000" fill-rule="nonzero" fill-opacity="1" /><path clip-path="url(#clip960)" d="M2028.9 44.2197 Q2031.53 45.1109 2034.01 48.0275 Q2036.52 50.9442 2039.03 56.0483 L2047.33 72.576 L2038.54 72.576 L2030.81 57.061 Q2027.81 50.9847 2024.97 48.9997 Q2022.18 47.0148 2017.32 47.0148 L2008.4 47.0148 L2008.4 72.576 L2000.22 72.576 L2000.22 12.096 L2018.69 12.096 Q2029.06 12.096 2034.17 16.4305 Q2039.27 20.7649 2039.27 29.5149 Q2039.27 35.2267 2036.6 38.994 Q2033.96 42.7613 2028.9 44.2197 M2008.4 18.8205 L2008.4 40.2903 L2018.69 40.2903 Q2024.61 40.2903 2027.61 37.5762 Q2030.64 34.8216 2030.64 29.5149 Q2030.64 24.2082 2027.61 21.5346 Q2024.61 18.8205 2018.69 18.8205 L2008.4 18.8205 Z" fill="#000000" fill-rule="nonzero" fill-opacity="1" /><path clip-path="url(#clip960)" d="M2086.55 44.2197 Q2089.18 45.1109 2091.65 48.0275 Q2094.16 50.9442 2096.67 56.0483 L2104.98 72.576 L2096.19 72.576 L2088.45 57.061 Q2085.45 50.9847 2082.62 48.9997 Q2079.82 47.0148 2074.96 47.0148 L2066.05 47.0148 L2066.05 72.576 L2057.87 72.576 L2057.87 12.096 L2076.34 12.096 Q2086.71 12.096 2091.81 16.4305 Q2096.92 20.7649 2096.92 29.5149 Q2096.92 35.2267 2094.24 38.994 Q2091.61 42.7613 2086.55 44.2197 M2066.05 18.8205 L2066.05 40.2903 L2076.34 40.2903 Q2082.25 40.2903 2085.25 37.5762 Q2088.29 34.8216 2088.29 29.5149 Q2088.29 24.2082 2085.25 21.5346 Q2082.25 18.8205 2076.34 18.8205 L2066.05 18.8205 Z" fill="#000000" fill-rule="nonzero" fill-opacity="1" /><path clip-path="url(#clip960)" d="M2115.51 12.096 L2123.69 12.096 L2123.69 36.8875 L2153.43 36.8875 L2153.43 12.096 L2161.61 12.096 L2161.61 72.576 L2153.43 72.576 L2153.43 43.7741 L2123.69 43.7741 L2123.69 72.576 L2115.51 72.576 L2115.51 12.096 Z" fill="#000000" fill-rule="nonzero" fill-opacity="1" /><polyline clip-path="url(#clip963)" style="stroke:#0000ff; stroke-linecap:round; stroke-linejoin:round; stroke-width:4; stroke-opacity:1; fill:none" points="1613.97,1128.35 1613.97,183.934 1639.07,183.934 1639.07,307.896 1664.17,307.896 1664.17,410.772 1689.27,410.772 1689.27,523.534 1714.37,523.534 1714.37,604.908 1739.47,604.908 1739.47,672.178 1764.57,672.178 1764.57,740.624 1789.67,740.624 1789.67,784.94 1814.77,784.94 1814.77,833.405 1839.87,833.405 1839.87,884.013 1864.97,884.013 1864.97,907.658 1890.06,907.658 1890.06,942.78 1915.16,942.78 1915.16,969.743 1940.26,969.743 1940.26,988.133 1965.36,988.133 1965.36,1007.28 1990.46,1007.28 1990.46,1026.92 2015.56,1026.92 2015.56,1035.56 2040.66,1035.56 2040.66,1049.8 2065.76,1049.8 2065.76,1064.88 2090.86,1064.88 2090.86,1069.23 2115.96,1069.23 2115.96,1078.7 2141.06,1078.7 2141.06,1088.52 2166.16,1088.52 2166.16,1090.11 2191.26,1090.11 2191.26,1096.12 2216.36,1096.12 2216.36,1102.76 2241.46,1102.76 2241.46,1104.28 2266.55,1104.28 2266.55,1108.71 2291.65,1108.71 2291.65,1110.64 2316.75,1110.64 2316.75,1113.27 2341.85,1113.27 2341.85,1116.45 2366.95,1116.45 2366.95,1118.8 2392.05,1118.8 2392.05,1119.01 2417.15,1119.01 2442.25,1119.01 2442.25,1121.98 2467.35,1121.98 2467.35,1121.22 2492.45,1121.22 2492.45,1123.43 2517.55,1123.43 2517.55,1124.82 2542.65,1124.82 2542.65,1125.02 2567.75,1125.02 2567.75,1124.26 2592.85,1124.26 2592.85,1125.44 2617.94,1125.44 2617.94,1125.58 2643.04,1125.58 2643.04,1126.13 2668.14,1126.13 2668.14,1126.2 2693.24,1126.2 2693.24,1126.06 2718.34,1126.06 2718.34,1126.82 2743.44,1126.82 2743.44,1127.31 2768.54,1127.31 2768.54,1127.03 2793.64,1127.03 2793.64,1127.24 2818.74,1127.24 2818.74,1127.72 2843.84,1127.72 2843.84,1127.31 2868.94,1127.31 2868.94,1127.72 2894.04,1127.72 2894.04,1127.58 2919.14,1127.58 2919.14,1127.51 2944.24,1127.51 2944.24,1128.14 2969.33,1128.14 2969.33,1128 2994.43,1128 3019.53,1128 3019.53,1128.2 3044.63,1128.2 3069.73,1128.2 3069.73,1128.14 3094.83,1128.14 3119.93,1128.14 3119.93,1128.2 3145.03,1128.2 3145.03,1128.34 3170.13,1128.34 3195.23,1128.34 3195.23,1128.27 3220.33,1128.27 3245.43,1128.27 3245.43,1128.2 3270.53,1128.2 3270.53,1128.27 3295.63,1128.27 3295.63,1128.2 3320.72,1128.2 3320.72,1128.34 3345.82,1128.34 3370.92,1128.34 3370.92,1128.27 3396.02,1128.27 3396.02,1128.2 3421.12,1128.2 3421.12,1128.34 3446.22,1128.34 3471.32,1128.34 3496.42,1128.34 3521.52,1128.34 3521.52,1128.27 3546.62,1128.27 3546.62,1128.35 "/>
</svg>
