<?xml version="1.0" encoding="UTF-8"?>
<svg xmlns="http://www.w3.org/2000/svg" xmlns:xlink="http://www.w3.org/1999/xlink" width="138.131pt" height="138.131pt" viewBox="0 0 138.131 138.131" version="1.2">
<g id="surface1">
<path style="fill:none;stroke-width:1.98427;stroke-linecap:butt;stroke-linejoin:miter;stroke:rgb(0%,0%,0%);stroke-opacity:1;stroke-miterlimit:10;" d="M -14.172041 0.000401572 L 111.936678 0.000401572 " transform="matrix(0.993748,0,0,-0.993748,19.337346,117.930087)"/>
<path style="fill:none;stroke-width:1.5874;stroke-linecap:round;stroke-linejoin:round;stroke:rgb(0%,0%,0%);stroke-opacity:1;stroke-miterlimit:10;" d="M -2.623032 3.498836 C -2.402906 2.18594 -0.00117194 0.216597 0.655276 0.000401572 C -0.00117194 -0.219725 -2.402906 -2.185137 -2.623032 -3.498032 " transform="matrix(0.993748,0,0,-0.993748,130.575383,117.930087)"/>
<path style="fill:none;stroke-width:1.98427;stroke-linecap:butt;stroke-linejoin:miter;stroke:rgb(0%,0%,0%);stroke-opacity:1;stroke-miterlimit:10;" d="M -0.00141761 -14.174152 L -0.00141761 111.938497 " transform="matrix(0.993748,0,0,-0.993748,19.337346,117.930087)"/>
<path style="fill:none;stroke-width:1.5874;stroke-linecap:round;stroke-linejoin:round;stroke:rgb(0%,0%,0%);stroke-opacity:1;stroke-miterlimit:10;" d="M -2.621213 3.495921 C -2.405017 2.186956 0.000647247 0.217613 0.657095 0.00141761 C 0.000647247 -0.218709 -2.405017 -2.184121 -2.621213 -3.497016 " transform="matrix(0,-0.993748,-0.993748,0,19.337346,6.692049)"/>
<path style="fill-rule:nonzero;fill:rgb(85.720825%,46.44928%,43.998718%);fill-opacity:1;stroke-width:0.3985;stroke-linecap:butt;stroke-linejoin:miter;stroke:rgb(0%,0%,0%);stroke-opacity:1;stroke-miterlimit:10;" d="M 8.504887 0.000401572 L 8.504887 48.188382 L 31.181815 48.188382 L 31.181815 0.000401572 Z M 8.504887 0.000401572 " transform="matrix(0.993748,0,0,-0.993748,19.337346,117.930087)"/>
<path style="fill-rule:nonzero;fill:rgb(45.399475%,71.71936%,40.429688%);fill-opacity:1;stroke-width:0.3985;stroke-linecap:butt;stroke-linejoin:miter;stroke:rgb(0%,0%,0%);stroke-opacity:1;stroke-miterlimit:10;" d="M 31.181815 0.000401572 L 31.181815 90.708113 L 76.535671 90.708113 L 76.535671 0.000401572 Z M 31.181815 0.000401572 " transform="matrix(0.993748,0,0,-0.993748,19.337346,117.930087)"/>
<path style="fill-rule:nonzero;fill:rgb(70.878601%,54.148865%,78.858948%);fill-opacity:1;stroke-width:0.3985;stroke-linecap:butt;stroke-linejoin:miter;stroke:rgb(0%,0%,0%);stroke-opacity:1;stroke-miterlimit:10;" d="M 76.535671 0.000401572 L 76.535671 59.528811 L 99.212598 59.528811 L 99.212598 0.000401572 Z M 76.535671 0.000401572 " transform="matrix(0.993748,0,0,-0.993748,19.337346,117.930087)"/>
</g>
</svg>
